<svg width="208" height="27" viewBox="0 0 208 27" fill="none" xmlns="http://www.w3.org/2000/svg">
<path fill-rule="evenodd" clip-rule="evenodd" d="M11.7253 20.7493C11.3965 20.5634 11.0451 20.4176 10.6762 20.3364C8.19512 19.79 7.0553 21.4083 5.40357 23.6247C5.40357 23.6247 3.76404 26.2059 1.80709 25.9056C1.30913 25.8297 -0.186495 25.3539 0.0193166 23.6142C0.0568163 23.2938 0.156234 22.9831 0.290535 22.6898L8.44628 4.82204C9.05585 3.4149 10.1058 1.43774 12.307 1.43774C14.5666 1.43774 15.4779 3.14517 16.0822 4.56366L24.1237 21.7497C25.4101 24.289 22.8688 26.6895 20.7662 25.7083C19.3735 25.058 13.3718 21.6781 11.7253 20.7493Z" fill="#F0047F"/>
<path fill-rule="evenodd" clip-rule="evenodd" d="M143.039 18.3793C143.81 17.9219 144.413 17.2838 144.852 16.4641C145.29 15.6444 145.508 14.7209 145.508 13.6917C145.508 12.6442 145.29 11.7093 144.852 10.8905C144.413 10.0709 143.81 9.43275 143.039 8.97621C142.267 8.51793 141.386 8.28923 140.397 8.28923C139.407 8.28923 138.527 8.52317 137.756 8.98931C136.985 9.45632 136.379 10.1005 135.942 10.9193C135.504 11.739 135.285 12.6625 135.285 13.6917C135.285 14.7209 135.504 15.6444 135.942 16.4641C136.379 17.2838 136.985 17.9219 137.756 18.3793C138.527 18.8358 139.407 19.0645 140.397 19.0645C141.386 19.0645 142.267 18.8358 143.039 18.3793ZM148.164 0.306397V20.9029C148.164 21.0714 148.027 21.2084 147.858 21.2084H145.815C145.645 21.2084 145.508 21.0714 145.508 20.9029V18.2073C144.937 19.2182 144.171 19.9942 143.21 20.5371C142.249 21.0801 141.13 21.3516 139.855 21.3516C138.427 21.3516 137.166 21.0225 136.071 20.3652C134.976 19.7079 134.124 18.7939 133.515 17.6216C132.906 16.4501 132.602 15.1111 132.602 13.6053C132.602 12.1196 132.906 10.7997 133.515 9.64749C134.124 8.49436 134.976 7.59438 136.071 6.94581C137.166 6.2981 138.417 5.97425 139.826 5.97425C141.12 5.97425 142.254 6.24136 143.224 6.77471C144.194 7.30807 144.956 8.07973 145.508 9.08969V0.306397C145.508 0.137924 145.645 0 145.815 0H147.858C148.027 0 148.164 0.137924 148.164 0.306397ZM151.208 6.08855H153.252C153.421 6.08855 153.558 6.2256 153.558 6.39494V20.9028C153.558 21.0713 153.421 21.2084 153.252 21.2084H151.208C151.039 21.2084 150.902 21.0713 150.902 20.9028V6.39494C150.902 6.2256 151.039 6.08855 151.208 6.08855ZM153.401 0.542904C153.715 0.868502 153.872 1.27703 153.872 1.77284C153.872 2.26866 153.715 2.67806 153.401 3.00191C153.087 3.32576 152.691 3.48813 152.215 3.48813C151.739 3.48813 151.344 3.32576 151.031 3.00191C150.717 2.67806 150.559 2.26866 150.559 1.77284C150.559 1.27703 150.717 0.868502 151.031 0.542904C151.344 0.219924 151.739 0.0575601 152.215 0.0575601C152.691 0.0575601 153.087 0.219924 153.401 0.542904ZM167.417 15.9072C167.008 16.6788 166.441 17.2837 165.718 17.7211C164.994 18.1602 164.166 18.3793 163.233 18.3793C161.806 18.3793 160.644 17.9026 159.749 16.9494C158.855 15.9971 158.398 14.7776 158.379 13.2919C158.379 12.3003 158.588 11.4186 159.007 10.647C159.426 9.87617 160.001 9.27037 160.735 8.83216C161.467 8.39396 162.3 8.17486 163.233 8.17486C164.166 8.17486 164.994 8.39396 165.718 8.83216C166.441 9.27037 167.008 9.87617 167.417 10.647C167.826 11.4186 168.031 12.3003 168.031 13.2919C168.031 14.2635 167.826 15.1346 167.417 15.9072ZM170.714 6.3941C170.714 6.22562 170.578 6.08857 170.409 6.08857H168.337C168.168 6.08857 168.031 6.22562 168.031 6.3941V8.86097C167.498 7.94702 166.778 7.2417 165.875 6.74588C164.971 6.25006 163.919 6.00216 162.72 6.00216C161.368 6.00216 160.173 6.30768 159.135 6.91697C158.099 7.52714 157.294 8.37475 156.723 9.46154C156.151 10.5474 155.866 11.7957 155.866 13.2055C155.866 14.6344 156.151 15.9019 156.723 17.007C157.294 18.1121 158.099 18.9755 159.135 19.5944C160.173 20.2124 161.368 20.5223 162.72 20.5223C163.9 20.5223 164.946 20.27 165.86 19.7655C166.774 19.2609 167.498 18.5504 168.031 17.6355V19.7506C168.031 21.218 167.564 22.3903 166.632 23.2667C165.699 24.1423 164.452 24.5813 162.891 24.5813C161.938 24.5813 161.063 24.4329 160.264 24.1388C159.559 23.8778 158.876 23.4946 158.215 22.99C158.071 22.8809 157.865 22.9237 157.771 23.0782L156.926 24.481C156.844 24.618 156.879 24.7978 157.011 24.8895C158.869 26.1893 160.867 26.8387 163.005 26.8387C164.547 26.8387 165.898 26.548 167.06 25.9675C168.221 25.3862 169.12 24.5525 169.758 23.4666C170.396 22.3807 170.714 21.1141 170.714 19.6651V6.3941ZM173.888 6.08855H175.931C176.1 6.08855 176.237 6.2256 176.237 6.39494V20.9028C176.237 21.0713 176.1 21.2084 175.931 21.2084H173.888C173.719 21.2084 173.581 21.0713 173.581 20.9028V6.39494C173.581 6.2256 173.719 6.08855 173.888 6.08855ZM176.08 0.542904C176.394 0.868502 176.551 1.27703 176.551 1.77284C176.551 2.26866 176.394 2.67806 176.08 3.00191C175.766 3.32576 175.37 3.48813 174.895 3.48813C174.419 3.48813 174.024 3.32576 173.71 3.00191C173.397 2.67806 173.239 2.26866 173.239 1.77284C173.239 1.27703 173.397 0.868502 173.71 0.542904C174.024 0.219924 174.419 0.0575601 174.895 0.0575601C175.37 0.0575601 175.766 0.219924 176.08 0.542904ZM187.827 20.3381C187.95 20.2639 188.002 20.1112 187.955 19.9759L187.439 18.4884C187.379 18.3138 187.177 18.2335 187.013 18.3173C186.291 18.6831 185.614 18.8655 184.981 18.8655C184.372 18.8655 183.914 18.6848 183.611 18.3217C183.305 17.9594 183.153 17.3597 183.153 16.5209V8.17315H187.473C187.642 8.17315 187.779 8.03523 187.779 7.86675V6.45C187.779 6.28066 187.642 6.14274 187.473 6.14274H183.153V2.85096C183.153 2.68162 183.017 2.5437 182.847 2.5437H180.775C180.605 2.5437 180.469 2.68162 180.469 2.85096V6.14274H178.634C178.464 6.14274 178.327 6.28066 178.327 6.45V7.86675C178.327 8.03523 178.464 8.17315 178.634 8.17315H180.469V17.0071C180.469 18.4552 180.84 19.5368 181.582 20.2508C182.325 20.9658 183.296 21.3228 184.495 21.3228C185.622 21.3228 186.733 20.9946 187.827 20.3381ZM198.621 18.2215C199.487 17.6218 200.006 16.8257 200.177 15.8358V14.3204H195.751C194.552 14.3204 193.661 14.5011 193.081 14.8634C192.5 15.2248 192.21 15.7974 192.21 16.5778C192.21 17.3599 192.505 17.9788 193.095 18.4362C193.686 18.8936 194.475 19.1215 195.466 19.1215C196.703 19.1215 197.755 18.8212 198.621 18.2215ZM200.206 20.9022V19.0935C199.082 20.5792 197.322 21.323 194.923 21.323C193.876 21.323 192.958 21.1222 192.168 20.7224C191.377 20.3226 190.768 19.77 190.34 19.0647C189.912 18.3603 189.698 17.5694 189.698 16.693C189.698 15.34 190.197 14.268 191.196 13.4763C192.196 12.6863 193.59 12.2813 195.379 12.2621H200.177V11.5472C200.177 10.4813 199.849 9.65642 199.192 9.07506C198.535 8.4937 197.579 8.20302 196.322 8.20302C194.884 8.20302 193.42 8.68836 191.93 9.65642C191.786 9.7507 191.593 9.70967 191.503 9.56215L190.71 8.25976C190.623 8.11747 190.666 7.93066 190.807 7.84162C191.796 7.2201 192.716 6.76444 193.566 6.47463C194.49 6.16038 195.589 6.00238 196.865 6.00238C198.749 6.00238 200.206 6.46503 201.234 7.38945C202.262 8.313 202.785 9.60405 202.804 11.2617L202.832 20.9013C202.832 21.0716 202.695 21.2086 202.526 21.2086H200.512C200.343 21.2086 200.206 21.0716 200.206 20.9022ZM207.694 0.000226386H205.65C205.482 0.000226386 205.344 0.137273 205.344 0.306619V20.9022C205.344 21.0716 205.482 21.2086 205.65 21.2086H207.694C207.863 21.2086 208 21.0716 208 20.9022V0.306619C208 0.137273 207.863 0.000226386 207.694 0.000226386Z" fill="#8787A0"/>
<path fill-rule="evenodd" clip-rule="evenodd" d="M45.6752 17.635C46.3414 17.1968 46.7408 16.6443 46.8743 15.9773V14.6051H43.4191C42.5627 14.6051 41.9287 14.743 41.5197 15.0198C41.1107 15.2956 40.9057 15.739 40.9057 16.3483C40.9057 16.9402 41.1194 17.4116 41.5484 17.7633C41.9766 18.1169 42.5627 18.2932 43.304 18.2932C44.2179 18.2932 45.008 18.0741 45.6752 17.635ZM46.903 20.9303V19.4358C46.3885 20.0844 45.7222 20.5794 44.9034 20.9233C44.0853 21.2655 43.1426 21.4366 42.0769 21.4366C40.4583 21.4366 39.1729 20.994 38.2214 20.108C37.2691 19.2211 36.793 18.0636 36.793 16.6347C36.793 15.1865 37.3023 14.0578 38.3209 13.2477C39.3395 12.4377 40.7819 12.023 42.6473 12.0038H46.8743V11.7184C46.8743 10.8987 46.6022 10.2658 46.0597 9.81717C45.5173 9.36936 44.7228 9.14502 43.6755 9.14502C42.3333 9.14502 40.9057 9.5422 39.3953 10.3339C39.2383 10.4151 39.0438 10.3514 38.9714 10.1908L37.8578 7.72915C37.7898 7.57814 37.8534 7.39919 38.0026 7.32674C39.1206 6.78378 40.174 6.37962 41.163 6.116C42.2287 5.82968 43.3999 5.68652 44.6757 5.68652C46.7313 5.68652 48.3254 6.17274 49.4591 7.1443C50.5911 8.11673 51.1675 9.46975 51.1859 11.2042L51.2146 20.9294C51.2155 21.0996 51.0777 21.2367 50.9085 21.2367H47.2092C47.0391 21.2367 46.903 21.1005 46.903 20.9303Z" fill="#2B2B3A"/>
<path fill-rule="evenodd" clip-rule="evenodd" d="M61.125 9.45991C60.0201 9.45991 59.121 9.83701 58.4259 10.5895C57.7309 11.3419 57.3838 12.3379 57.3838 13.5766C57.3838 14.8153 57.7265 15.82 58.412 16.5916C59.0974 17.3642 59.973 17.7491 61.0387 17.7491C62.5282 17.7491 63.6628 17.228 64.4424 16.1866C64.5401 16.0574 64.7232 16.026 64.8575 16.1177L67.3918 17.8408C67.5313 17.9359 67.5662 18.1262 67.4729 18.2668C66.8389 19.2279 65.9843 19.9803 64.909 20.5224C63.7378 21.1134 62.3721 21.4084 60.8111 21.4084C59.2683 21.4084 57.907 21.0846 56.7271 20.4369C55.5463 19.7891 54.628 18.8743 53.9713 17.6924C53.3146 16.5113 52.9858 15.1487 52.9858 13.6045C52.9858 12.0429 53.3146 10.6654 53.9713 9.47475C54.628 8.28322 55.5506 7.35879 56.741 6.70148C57.9306 6.04418 59.3067 5.71509 60.8677 5.71509C62.3337 5.71509 63.6384 5.99617 64.7799 6.55833C65.8264 7.07335 66.6802 7.78303 67.343 8.68913C67.4441 8.82705 67.4154 9.02171 67.2767 9.12209L64.779 10.9247C64.6543 11.0146 64.4799 10.9989 64.377 10.8836C63.5259 9.93478 62.4419 9.45991 61.125 9.45991Z" fill="#2B2B3A"/>
<path fill-rule="evenodd" clip-rule="evenodd" d="M79.6867 12.2902C79.6483 11.2802 79.3257 10.4701 78.7161 9.86082C78.1065 9.25066 77.2981 8.94513 76.2891 8.94513C75.3368 8.94513 74.5423 9.24629 73.9039 9.84599C73.2664 10.4466 72.8618 11.261 72.6909 12.2902H79.6867ZM81.9001 7.85922C83.1855 9.28906 83.8282 11.2802 83.8282 13.8343C83.8282 14.1338 83.8239 14.3886 83.8152 14.599C83.8099 14.7631 83.6739 14.8906 83.5099 14.8906H72.7763C73.0231 15.863 73.4993 16.6207 74.2039 17.1637C74.9086 17.7066 75.7554 17.979 76.746 17.979C77.469 17.979 78.1641 17.8402 78.8303 17.5643C79.4111 17.3234 79.9405 16.9847 80.4201 16.5491C80.5405 16.4391 80.7254 16.447 80.8396 16.5631L82.7373 18.4852C82.8524 18.6005 82.8576 18.7899 82.7442 18.9077C82.003 19.6803 81.1222 20.28 80.1018 20.7086C78.9873 21.1756 77.7446 21.4086 76.3745 21.4086C74.7559 21.4086 73.3423 21.0848 72.1336 20.4371C70.924 19.7894 69.9917 18.8746 69.3351 17.6918C68.6784 16.5116 68.3496 15.1481 68.3496 13.6048C68.3496 12.0431 68.6827 10.6657 69.349 9.47412C70.0153 8.28346 70.9476 7.35904 72.1475 6.70173C73.3467 6.04442 74.7184 5.71533 76.2603 5.71533C78.7344 5.71533 80.6146 6.43025 81.9001 7.85922Z" fill="#2B2B3A"/>
<path fill-rule="evenodd" clip-rule="evenodd" d="M93.6543 9.27398C92.8363 9.01647 92.1029 8.88815 91.4558 8.88815C90.9221 8.88815 90.4939 8.98417 90.1703 9.17446C89.8468 9.36476 89.6846 9.65108 89.6846 10.0317C89.6846 10.4515 89.9035 10.7754 90.3413 11.0032C90.779 11.2319 91.4933 11.4894 92.4831 11.7749C93.568 12.0996 94.4636 12.4191 95.1674 12.7333C95.872 13.0467 96.4816 13.5137 96.9953 14.1335C97.5098 14.7524 97.7671 15.5677 97.7671 16.5777C97.7671 18.1018 97.181 19.289 96.0098 20.1357C94.8395 20.9842 93.3404 21.4084 91.5125 21.4084C90.2567 21.4084 89.0471 21.2225 87.8855 20.8515C86.8106 20.5076 85.867 20.0292 85.0542 19.4164C84.9383 19.33 84.9034 19.172 84.9653 19.0411L86.1252 16.6266C86.2071 16.4563 86.4226 16.3987 86.5769 16.5096C87.2811 17.015 88.0555 17.4139 88.8997 17.7064C89.8599 18.0407 90.7695 18.2065 91.6267 18.2065C92.2171 18.2065 92.688 18.107 93.0404 17.9071C93.3927 17.7064 93.568 17.4061 93.568 17.0063C93.568 16.5681 93.3447 16.225 92.8973 15.9771C92.45 15.7301 91.7314 15.463 90.7415 15.1775C89.6942 14.872 88.823 14.5665 88.1288 14.2627C87.4329 13.9572 86.8385 13.4954 86.3432 12.8756C85.8478 12.2567 85.601 11.451 85.601 10.4603C85.601 8.93528 86.1723 7.75509 87.3143 6.91622C88.4567 6.07734 89.9035 5.65747 91.6555 5.65747C92.702 5.65747 93.7494 5.80587 94.7967 6.10091C95.7473 6.36977 96.6203 6.74425 97.4147 7.22436C97.5508 7.30641 97.597 7.48187 97.5255 7.62328L96.2819 10.091C96.2043 10.2455 96.0133 10.3031 95.8607 10.2202C95.1177 9.81868 94.3825 9.50355 93.6543 9.27398Z" fill="#2B2B3A"/>
<path fill-rule="evenodd" clip-rule="evenodd" d="M117.786 10.5461C117.072 11.3282 116.714 12.3469 116.714 13.6048C116.714 14.8626 117.072 15.8822 117.786 16.6635C118.5 17.4447 119.428 17.8358 120.57 17.8358C121.693 17.8358 122.612 17.4447 123.327 16.6635C124.04 15.8822 124.397 14.8626 124.397 13.6048C124.397 12.3469 124.04 11.3282 123.327 10.5461C122.612 9.7648 121.693 9.37373 120.57 9.37373C119.428 9.37373 118.5 9.7648 117.786 10.5461ZM124.868 6.68689C126.116 7.33547 127.081 8.25028 127.766 9.43221C128.452 10.6133 128.795 11.9846 128.795 13.5471C128.795 15.0913 128.452 16.4583 127.766 17.6499C127.081 18.8405 126.116 19.7658 124.868 20.4222C123.62 21.0796 122.189 21.4086 120.57 21.4086C118.932 21.4086 117.491 21.0796 116.244 20.4222C114.996 19.7658 114.03 18.8405 113.345 17.6499C112.659 16.4583 112.317 15.0913 112.317 13.5471C112.317 11.9846 112.659 10.6133 113.345 9.43221C114.03 8.25028 114.996 7.33547 116.244 6.68689C117.491 6.04006 118.932 5.71533 120.57 5.71533C122.189 5.71533 123.62 6.04006 124.868 6.68689Z" fill="#2B2B3A"/>
<path fill-rule="evenodd" clip-rule="evenodd" d="M110.378 14.134C109.864 13.5142 109.255 13.0472 108.55 12.7338C107.846 12.4187 106.951 12.1001 105.866 11.7754C104.876 11.4899 104.162 11.2324 103.724 11.0037C103.286 10.7741 103.067 10.4511 103.067 10.0321C103.067 9.65068 103.229 9.36437 103.553 9.17407C103.876 8.98378 104.305 8.88775 104.838 8.88775C105.485 8.88775 106.218 9.01695 107.037 9.27446C107.765 9.50316 108.5 9.81916 109.243 10.2207C109.396 10.3028 109.587 10.246 109.664 10.0906L110.908 7.62377C110.98 7.48236 110.933 7.3069 110.797 7.22485C110.003 6.74387 109.13 6.36939 108.179 6.1014C107.132 5.80635 106.085 5.65796 105.038 5.65796C103.286 5.65796 101.839 6.07783 100.697 6.91583C99.5553 7.75471 98.9841 8.93576 98.9841 10.4608C98.9841 11.4515 99.2309 12.2572 99.7262 12.8761C100.222 13.4959 100.815 13.9577 101.511 14.2623C102.206 14.567 103.077 14.8725 104.124 15.1771C105.114 15.4626 105.833 15.7297 106.28 15.9767C106.726 16.2255 106.951 16.5686 106.951 17.0068C106.951 17.4066 106.775 17.7068 106.423 17.9067C106.071 18.1075 105.6 18.207 105.009 18.207C104.152 18.207 103.242 18.0412 102.282 17.7068C101.438 17.4144 100.664 17.0155 99.9599 16.5101C99.8474 16.4289 99.7027 16.4385 99.6007 16.5162C99.6007 16.5363 99.6015 16.5563 99.6015 16.5782C99.6015 17.7374 99.3477 18.791 98.8594 19.7137C99.5727 20.1851 100.374 20.5648 101.269 20.8511C102.43 21.223 103.638 21.4089 104.895 21.4089C106.723 21.4089 108.222 20.9846 109.393 20.1362C110.564 19.2886 111.15 18.1023 111.15 16.5782C111.15 15.5682 110.892 14.7529 110.378 14.134Z" fill="#2B2B3A"/>
</svg>
